<svg aria-hidden="true" style="position: absolute; width: 0; height: 0; overflow: hidden;" version="1.1" xmlns="http://www.w3.org/2000/svg" xmlns:xlink="http://www.w3.org/1999/xlink">
<defs>
<symbol id="pkmn-back" viewBox="0 0 33 32">
<title>back</title>
<path d="M14.909 31.532c0 0-14.442-14.442-14.442-14.442-0.173-0.174-0.294-0.346-0.364-0.519s-0.104-0.364-0.104-0.571c0-0.208 0.035-0.398 0.104-0.571s0.19-0.346 0.364-0.519c0 0 14.493-14.493 14.493-14.493 0.277-0.277 0.623-0.416 1.039-0.416s0.779 0.156 1.091 0.468c0.312 0.312 0.468 0.675 0.468 1.091s-0.156 0.779-0.468 1.091c0 0-11.792 11.792-11.792 11.792s25.766 0 25.766 0c0.45 0 0.823 0.148 1.117 0.442s0.442 0.667 0.442 1.117c0 0.45-0.148 0.823-0.442 1.117s-0.667 0.442-1.117 0.442c0 0-25.766 0-25.766 0s11.844 11.844 11.844 11.844c0.277 0.277 0.416 0.623 0.416 1.039s-0.156 0.779-0.468 1.091c-0.312 0.312-0.675 0.468-1.091 0.468s-0.779-0.156-1.091-0.468c0 0 0 0 0 0v0z"></path>
</symbol>
<symbol id="pkmn-left" viewBox="0 0 32 32">
<title>left</title>
<path d="M21.357 31.165c0 0-13.774-13.774-13.774-13.774-0.232-0.232-0.394-0.463-0.487-0.696s-0.139-0.487-0.139-0.765 0.046-0.533 0.139-0.765c0.093-0.232 0.255-0.463 0.487-0.696 0 0 13.843-13.843 13.843-13.843 0.417-0.417 0.915-0.626 1.496-0.626s1.078 0.209 1.496 0.626c0.417 0.417 0.615 0.928 0.591 1.53s-0.243 1.113-0.661 1.53c0 0-12.243 12.243-12.243 12.243s12.313 12.313 12.313 12.313c0.417 0.417 0.626 0.904 0.626 1.461s-0.209 1.043-0.626 1.461c-0.417 0.417-0.928 0.626-1.53 0.626s-1.113-0.209-1.53-0.626c0 0 0 0 0 0v0z"></path>
</symbol>
<symbol id="pkmn-right" viewBox="0 0 32 32">
<title>right</title>
<path d="M7.55 31.202c-0.371-0.463-0.568-0.974-0.591-1.53s0.174-1.043 0.591-1.461c0 0 12.243-12.243 12.243-12.243s-12.313-12.313-12.313-12.313c-0.371-0.371-0.545-0.87-0.522-1.496s0.22-1.125 0.591-1.496c0.463-0.464 0.963-0.684 1.496-0.661s1.009 0.244 1.426 0.661c0 0 13.843 13.844 13.843 13.844 0.232 0.232 0.394 0.463 0.487 0.696s0.139 0.487 0.139 0.765c0 0.278-0.046 0.533-0.139 0.765s-0.255 0.463-0.487 0.696c0 0-13.774 13.774-13.774 13.774-0.417 0.417-0.904 0.615-1.461 0.591s-1.067-0.22-1.53-0.591c0 0 0 0 0 0s0 0 0 0z"></path>
</symbol>
<symbol id="pkmn-close" viewBox="0 0 32 32">
<title>close</title>
<path d="M16 18.575c0 0-12.874 12.874-12.874 12.874-0.368 0.368-0.797 0.552-1.287 0.552s-0.92-0.184-1.287-0.552c-0.368-0.368-0.552-0.797-0.552-1.287s0.184-0.92 0.552-1.287c0 0 12.874-12.874 12.874-12.874s-12.874-12.874-12.874-12.874c-0.368-0.368-0.552-0.797-0.552-1.287s0.184-0.92 0.552-1.287c0.368-0.368 0.797-0.552 1.287-0.552s0.92 0.184 1.287 0.552c0 0 12.874 12.874 12.874 12.874s12.874-12.874 12.874-12.874c0.368-0.368 0.797-0.552 1.287-0.552s0.92 0.184 1.287 0.552c0.368 0.368 0.552 0.797 0.552 1.287s-0.184 0.92-0.552 1.287c0 0-12.874 12.874-12.874 12.874s12.874 12.874 12.874 12.874c0.368 0.368 0.552 0.797 0.552 1.287s-0.184 0.92-0.552 1.287c-0.368 0.368-0.797 0.552-1.287 0.552s-0.92-0.184-1.287-0.552c0 0-12.874-12.874-12.874-12.874v0z"></path>
</symbol>
<symbol id="pkmn-blank" viewBox="0 0 32 32">
<title>blank</title>
<path d="M32 16.001c0 8.837-7.163 16-16 16s-16-7.163-16-16c0-8.837 7.163-16.001 16-16.001s16 7.164 16 16.001c0 0 0 0 0 0z"></path>
</symbol>
<symbol id="pkmn-search" viewBox="0 0 32 32">
<title>search</title>
<path d="M29.601 31.593c0 0-10.908-10.908-10.908-10.908-0.905 0.785-1.962 1.396-3.168 1.833s-2.489 0.656-3.847 0.656c-3.259 0-6.020-1.132-8.283-3.395s-3.395-4.994-3.395-8.192c0-3.199 1.132-5.929 3.395-8.192s5.009-3.395 8.238-3.395c3.198 0 5.922 1.132 8.17 3.395s3.372 4.994 3.372 8.192c0 1.297-0.211 2.55-0.634 3.757s-1.056 2.338-1.901 3.395c0 0 10.999 10.908 10.999 10.908 0.272 0.242 0.407 0.55 0.407 0.928s-0.151 0.717-0.453 1.018c-0.272 0.272-0.604 0.407-0.996 0.407s-0.724-0.136-0.996-0.407c0 0 0 0 0 0zM11.632 20.458c2.444 0 4.526-0.867 6.246-2.603s2.58-3.825 2.58-6.269c0-2.444-0.86-4.534-2.58-6.269s-3.802-2.603-6.246-2.603c-2.474 0-4.579 0.868-6.314 2.603s-2.603 3.825-2.603 6.269 0.867 4.533 2.603 6.269c1.735 1.735 3.84 2.603 6.314 2.603 0 0 0 0 0 0z"></path>
</symbol>
<symbol id="pkmn-sort" viewBox="0 0 32 32">
<title>sort</title>
<path d="M9.333 26.667c0 0-8 0-8 0-0.385 0-0.704-0.126-0.956-0.378s-0.378-0.571-0.378-0.956 0.126-0.704 0.378-0.956c0.252-0.252 0.571-0.378 0.956-0.378 0 0 8 0 8 0 0.385 0 0.704 0.126 0.956 0.378s0.378 0.571 0.378 0.956c0 0.385-0.126 0.704-0.378 0.956s-0.571 0.378-0.956 0.378c0 0 0 0 0 0zM30.667 8c0 0-29.333 0-29.333 0-0.385 0-0.704-0.126-0.956-0.378s-0.378-0.57-0.378-0.956 0.126-0.704 0.378-0.956c0.252-0.252 0.571-0.378 0.956-0.378 0 0 29.333 0 29.333 0 0.385 0 0.704 0.126 0.956 0.378s0.378 0.57 0.378 0.956-0.126 0.704-0.378 0.956c-0.252 0.252-0.571 0.378-0.956 0.378 0 0 0 0 0 0zM20 17.333c0 0-18.667 0-18.667 0-0.385 0-0.704-0.126-0.956-0.378s-0.378-0.571-0.378-0.956 0.126-0.704 0.378-0.956c0.252-0.252 0.571-0.378 0.956-0.378 0 0 18.667 0 18.667 0 0.385 0 0.704 0.126 0.956 0.378s0.378 0.571 0.378 0.956c0 0.385-0.126 0.704-0.378 0.956s-0.571 0.378-0.956 0.378c0 0 0 0 0 0z"></path>
</symbol>
<symbol id="pkmn-height" viewBox="0 0 32 32">
<title>height</title>
<path d="M2.4 25.6c-0.64 0-1.2-0.24-1.68-0.72s-0.72-1.040-0.72-1.68c0 0 0-14.4 0-14.4 0-0.613 0.24-1.167 0.72-1.66s1.040-0.74 1.68-0.74c0 0 27.2 0 27.2 0 0.64 0 1.2 0.247 1.68 0.74s0.72 1.047 0.72 1.66c0 0 0 14.4 0 14.4 0 0.64-0.24 1.2-0.72 1.68s-1.040 0.72-1.68 0.72c0 0-27.2 0-27.2 0s0 0 0 0zM2.4 23.2h27.2v-14.4h-5.2v7.2h-2.4v-7.2h-4.8v7.2h-2.4v-7.2h-4.8v7.2h-2.4v-7.2h-5.2v14.4zM7.6 16v0zM14.8 16v0zM22 16v0z"></path>
</symbol>
<symbol id="pkmn-tag" viewBox="0 0 32 32">
<title>tag</title>
<path d="M6.748 31.515c-0.453 0-0.824-0.177-1.115-0.533s-0.371-0.759-0.242-1.212c0 0 1.649-6.497 1.649-6.497s-5.576 0-5.576 0c-0.453 0-0.832-0.186-1.139-0.558s-0.396-0.784-0.267-1.236c0.065-0.323 0.226-0.59 0.485-0.8s0.565-0.315 0.921-0.315c0 0 6.303 0 6.303 0l2.182-8.727c0 0-6.545 0-6.545 0-0.453 0-0.832-0.186-1.139-0.558s-0.396-0.784-0.267-1.236c0.065-0.323 0.226-0.59 0.485-0.8s0.565-0.315 0.921-0.315c0 0 7.273 0 7.273 0s1.794-7.176 1.794-7.176c0.065-0.323 0.218-0.582 0.461-0.776s0.526-0.291 0.848-0.291c0.453 0 0.816 0.178 1.091 0.533s0.364 0.76 0.267 1.212c0 0-1.6 6.497-1.6 6.497h8.776c0 0 1.794-7.176 1.794-7.176 0.065-0.323 0.218-0.582 0.461-0.776s0.526-0.291 0.849-0.291c0.453 0 0.817 0.178 1.091 0.533s0.364 0.76 0.267 1.212c0 0-1.6 6.497-1.6 6.497s5.576 0 5.576 0c0.453 0 0.832 0.186 1.139 0.558s0.396 0.784 0.267 1.236c-0.065 0.323-0.226 0.59-0.485 0.8s-0.565 0.315-0.921 0.315c0 0-6.303 0-6.303 0l-2.182 8.727c0 0 6.545 0 6.545 0 0.453 0 0.832 0.186 1.14 0.558s0.396 0.784 0.267 1.236c-0.065 0.323-0.226 0.59-0.485 0.8s-0.565 0.315-0.921 0.315c0 0-7.273 0-7.273 0s-1.794 7.176-1.794 7.176c-0.065 0.259-0.202 0.501-0.412 0.727s-0.525 0.339-0.945 0.339c-0.453 0-0.824-0.177-1.115-0.533s-0.371-0.759-0.242-1.212c0 0 1.649-6.497 1.649-6.497h-8.776c0 0-1.794 7.176-1.794 7.176-0.065 0.259-0.202 0.501-0.412 0.727s-0.526 0.339-0.945 0.339c0 0 0 0 0 0zM10.627 20.364h8.776l2.182-8.727h-8.776l-2.182 8.727z"></path>
</symbol>
<symbol id="pkmn-text_format" viewBox="0 0 32 32">
<title>text_format</title>
<path d="M2.667 32c-0.462 0-0.845-0.151-1.147-0.453s-0.453-0.685-0.453-1.147 0.151-0.845 0.453-1.147c0.302-0.302 0.685-0.453 1.147-0.453 0 0 26.667 0 26.667 0 0.462 0 0.845 0.151 1.147 0.453s0.453 0.685 0.453 1.147c0 0.462-0.151 0.845-0.453 1.147s-0.685 0.453-1.147 0.453c0 0-26.667 0-26.667 0s0 0 0 0zM11.36 14.72h9.28l-4.533-11.84h-0.213l-4.533 11.84zM7.307 23.467c-0.569 0-0.942-0.187-1.12-0.56s-0.178-0.827 0-1.36c0 0 7.467-19.893 7.467-19.893 0.178-0.462 0.489-0.853 0.933-1.173s0.915-0.48 1.413-0.48c0.498 0 0.969 0.16 1.413 0.48s0.755 0.711 0.933 1.173c0 0 7.467 19.893 7.467 19.893 0.178 0.533 0.178 0.987 0 1.36s-0.551 0.56-1.12 0.56c-0.285 0-0.542-0.080-0.773-0.24s-0.382-0.347-0.453-0.56c0 0-2.080-5.547-2.080-5.547h-10.827c0 0-2.080 5.547-2.080 5.547-0.071 0.213-0.222 0.4-0.453 0.56s-0.471 0.24-0.72 0.24c0 0 0 0 0 0z"></path>
</symbol>
<symbol id="pkmn-weight" viewBox="0 0 32 32">
<title>weight</title>
<path d="M4.746 29.405h22.746l-2.724-19.027h-17.297l-2.724 19.027zM16.119 7.784c0.75 0 1.369-0.252 1.86-0.757s0.735-1.117 0.735-1.838c0-0.75-0.245-1.369-0.735-1.859s-1.11-0.735-1.86-0.735c-0.72 0-1.334 0.245-1.838 0.735s-0.757 1.11-0.757 1.859c0 0.721 0.253 1.333 0.757 1.838s1.117 0.757 1.838 0.757c0 0 0 0 0 0zM20.616 7.784c0 0 4.151 0 4.151 0 0.663 0 1.239 0.209 1.73 0.627s0.778 0.959 0.865 1.622c0 0 2.681 19.027 2.681 19.027 0.115 0.778-0.080 1.463-0.584 2.054s-1.161 0.886-1.967 0.886c0 0-22.746 0-22.746 0-0.807 0-1.463-0.296-1.968-0.887s-0.699-1.276-0.584-2.054c0 0 2.681-19.027 2.681-19.027 0.087-0.663 0.375-1.204 0.865-1.622s1.066-0.627 1.73-0.627c0 0 4.151 0 4.151 0-0.231-0.404-0.404-0.814-0.519-1.232s-0.173-0.872-0.173-1.362c0-1.441 0.504-2.667 1.514-3.676s2.234-1.514 3.676-1.514c1.442 0 2.666 0.504 3.676 1.514s1.514 2.234 1.514 3.676c0 0.49-0.058 0.944-0.173 1.362s-0.288 0.829-0.519 1.232c0 0 0 0 0 0zM4.746 29.405v0z"></path>
</symbol>
<symbol id="pkmn-pokeball" viewBox="0 0 32 32">
<title>pokeball</title>
<path d="M15.838 32c8.061 0 14.727-5.961 15.84-13.714 0 0-9.373 0-9.373 0-0.941 2.663-3.481 4.571-6.467 4.571s-5.525-1.908-6.467-4.571c0 0-9.371 0-9.371 0 1.109 7.753 7.777 13.714 15.838 13.714 0 0 0 0 0 0zM9.371 13.714c0 0-9.371 0-9.371 0 1.109-7.754 7.777-13.714 15.838-13.714s14.727 5.96 15.84 13.714c0 0-9.373 0-9.373 0-0.941-2.663-3.481-4.571-6.467-4.571s-5.525 1.908-6.467 4.571c0 0 0 0 0 0zM19.647 16c0 2.104-1.705 3.809-3.809 3.809s-3.809-1.705-3.809-3.809c0-2.104 1.705-3.81 3.809-3.81s3.809 1.706 3.809 3.81c0 0 0 0 0 0z"></path>
</symbol>
<symbol id="pkmn-logo" viewBox="0 0 32 32">
<title>logo</title>
<path d="M28 25.333h2.667v2.667h-29.333v-2.667h2.667v-20c0-0.736 0.597-1.333 1.333-1.333h13.333c0.736 0 1.333 0.597 1.333 1.333v20h5.333v-10.667h-2.667v-2.667h4c0.736 0 1.333 0.597 1.333 1.333v12zM6.667 6.667v18.667h10.667v-18.667h-10.667zM9.333 14.667h5.333v2.667h-5.333v-2.667zM9.333 9.333h5.333v2.667h-5.333v-2.667z"></path>
</symbol>
<symbol id="pkmn-user" viewBox="0 0 32 32">
<title>user</title>
<path d="M16 2.667c7.36 0 13.333 5.973 13.333 13.333s-5.973 13.333-13.333 13.333c-7.36 0-13.333-5.973-13.333-13.333s5.973-13.333 13.333-13.333zM8.031 20.555c1.957 2.921 4.896 4.778 8.182 4.778s6.225-1.857 8.182-4.778c-2.143-1.999-5.020-3.222-8.182-3.222s-6.038 1.223-8.182 3.222zM16 14.667c2.209 0 4-1.791 4-4s-1.791-4-4-4c-2.209 0-4 1.791-4 4s1.791 4 4 4z"></path>
</symbol>
<symbol id="pkmn-bar" viewBox="0 0 32 32">
<title>bar</title>
<path d="M4 16h2.667v12h-2.667v-12zM25.333 10.667h2.667v17.333h-2.667v-17.333zM14.667 2.667h2.667v25.333h-2.667v-25.333z"></path>
</symbol>
<symbol id="pkmn-db" viewBox="0 0 32 32">
<title>db</title>
<path d="M28 12.667v4c0 3.314-5.373 6-12 6s-12-2.686-12-6v-4c0 3.314 5.373 6 12 6s12-2.686 12-6zM4 19.333c0 3.314 5.373 6 12 6s12-2.686 12-6v4c0 3.314-5.373 6-12 6s-12-2.686-12-6v-4zM16 16c-6.627 0-12-2.686-12-6s5.373-6 12-6c6.627 0 12 2.686 12 6s-5.373 6-12 6z"></path>
</symbol>
<symbol id="pkmn-home" viewBox="0 0 32 32">
<title>home</title>
<path d="M28 26.667c0 0.736-0.597 1.333-1.333 1.333h-21.333c-0.736 0-1.333-0.597-1.333-1.333v-14.015c0-0.411 0.19-0.8 0.515-1.052l10.667-8.296c0.481-0.374 1.156-0.374 1.637 0l10.667 8.296c0.325 0.253 0.515 0.641 0.515 1.052v14.015zM25.333 25.333v-12.029l-9.333-7.259-9.333 7.259v12.029h18.667z"></path>
</symbol>
<symbol id="pkmn-burger" viewBox="0 0 32 32">
<title>burger</title>
<path d="M4 5.333h24v2.667h-24v-2.667zM4 14.667h16v2.667h-16v-2.667zM4 24h24v2.667h-24v-2.667z"></path>
</symbol>
<symbol id="pkmn-refresh" viewBox="0 0 32 32">
<title>refresh</title>
<path d="M7.283 5.91c2.337-2.021 5.384-3.244 8.717-3.244 7.364 0 13.333 5.97 13.333 13.333 0 2.848-0.893 5.488-2.414 7.654l-4.252-7.654h4c0-5.891-4.776-10.667-10.667-10.667-2.867 0-5.47 1.131-7.386 2.971l-1.33-2.394zM24.717 26.090c-2.337 2.021-5.384 3.243-8.717 3.243-7.364 0-13.333-5.97-13.333-13.333 0-2.848 0.893-5.488 2.414-7.654l4.252 7.654h-4c0 5.891 4.776 10.667 10.667 10.667 2.867 0 5.47-1.131 7.386-2.971l1.33 2.394z"></path>
</symbol>
<symbol id="pkmn-options" viewBox="0 0 32 32">
<title>options</title>
<path d="M11.582 5.333l3.476-3.475c0.521-0.521 1.365-0.521 1.886 0l3.475 3.475h4.915c0.736 0 1.333 0.597 1.333 1.333v4.915l3.475 3.476c0.521 0.521 0.521 1.365 0 1.886l-3.475 3.475v4.915c0 0.736-0.597 1.333-1.333 1.333h-4.915l-3.475 3.475c-0.521 0.521-1.365 0.521-1.886 0l-3.476-3.475h-4.915c-0.736 0-1.333-0.597-1.333-1.333v-4.915l-3.475-3.475c-0.521-0.521-0.521-1.365 0-1.886l3.475-3.476v-4.915c0-0.736 0.597-1.333 1.333-1.333h4.915zM8 8v4.686l-3.314 3.314 3.314 3.314v4.686h4.686l3.314 3.314 3.314-3.314h4.686v-4.686l3.314-3.314-3.314-3.314v-4.686h-4.686l-3.314-3.314-3.314 3.314h-4.686zM16 21.333c-2.946 0-5.333-2.388-5.333-5.333s2.388-5.333 5.333-5.333c2.945 0 5.333 2.388 5.333 5.333s-2.388 5.333-5.333 5.333zM16 18.667c1.473 0 2.667-1.194 2.667-2.667s-1.194-2.667-2.667-2.667c-1.473 0-2.667 1.194-2.667 2.667s1.194 2.667 2.667 2.667z"></path>
</symbol>
<symbol id="pkmn-archive" viewBox="0 0 32 32">
<title>archive</title>
<path d="M4 13.333h-1.333v-7.996c0-0.739 0.607-1.337 1.322-1.337h24.022c0.73 0 1.322 0.584 1.322 1.337v7.996h-1.333v13.335c0 0.735-0.593 1.331-1.325 1.331h-21.351c-0.732 0-1.325-0.597-1.325-1.331v-13.335zM25.333 13.333h-18.667v12h18.667v-12zM5.333 6.667v4h21.333v-4h-21.333zM12 16h8v2.667h-8v-2.667z"></path>
</symbol>
<symbol id="pkmn-favicon" viewBox="0 0 32 32">
<title>favicon</title>
<path fill="#080808" style="fill: var(--color1, #080808)" d="M10 6v-4h12v4h-12zM6 10v-4h4v4h-4zM6 22h-4v-12h4v12zM10 26h-4v-4h4v4zM22 26v4h-12v-4h12zM26 22v4h-4v-4h4zM26 10v-4h-4v4h4zM26 10v12h4v-12h-4z"></path>
<path fill="#e0f8cf" style="fill: var(--color2, #e0f8cf)" d="M26 18h-20v4h4v4h12v-4h4v-4z"></path>
<path fill="#86c06c" style="fill: var(--color3, #86c06c)" d="M10 10v-4h12v4h4v8h-20v-8h4zM14 10h-4v4h4v-4z"></path>
</symbol>
<symbol id="pkmn-hp" viewBox="0 0 88 32">
<title>hp</title>
<path d="M0 32h16v-8h8v8h8v-32h-8v16h-8v-16h-16v32zM56 32h-16v-32h32v24h-16v8zM56 8v8h8v-8h-8zM80 16h8v-8h-8v8zM80 32h8v-8h-8v8z"></path>
</symbol>
<symbol id="pkmn-level" viewBox="0 0 38 32">
<title>level</title>
<path d="M12.8 32v-32h12.8v25.6h12.8v6.4h-25.6zM0 12.8v-6.4h6.4v6.4h-6.4zM0 25.6v-6.4h6.4v6.4h-6.4z"></path>
</symbol>
</defs>
</svg>
